<svg width="156" height="56" viewBox="0 0 156 56" fill="none" xmlns="http://www.w3.org/2000/svg">
<path d="M147.345 8.81466C147.157 8.81466 147.01 8.76154 146.904 8.65529C146.806 8.54904 146.757 8.40193 146.757 8.21394V0.600721C146.757 0.404567 146.81 0.257452 146.916 0.159374C147.023 0.0531248 147.166 0 147.345 0C147.517 0 147.648 0.0326921 147.738 0.0980764C147.836 0.155288 147.926 0.261538 148.007 0.416827L151.219 6.41178H150.839L154.039 0.416827C154.121 0.261538 154.207 0.155288 154.297 0.0980764C154.387 0.0326921 154.517 0 154.689 0C154.869 0 155.008 0.0531248 155.106 0.159374C155.204 0.257452 155.253 0.404567 155.253 0.600721V8.21394C155.253 8.40193 155.204 8.54904 155.106 8.65529C155.016 8.76154 154.877 8.81466 154.689 8.81466C154.501 8.81466 154.358 8.76154 154.26 8.65529C154.162 8.54904 154.113 8.40193 154.113 8.21394V1.88798H154.382L151.538 7.14736C151.473 7.26995 151.403 7.35986 151.33 7.41707C151.256 7.47428 151.154 7.50289 151.023 7.50289C150.893 7.50289 150.786 7.47428 150.705 7.41707C150.623 7.35168 150.549 7.26178 150.484 7.14736L147.615 1.87572H147.909V8.21394C147.909 8.40193 147.86 8.54904 147.762 8.65529C147.672 8.76154 147.533 8.81466 147.345 8.81466Z" fill="#3FA5AD"/>
<path d="M142.23 8.81473C142.025 8.81473 141.866 8.75751 141.751 8.64309C141.645 8.52867 141.592 8.36929 141.592 8.16497V1.15246H138.993C138.821 1.15246 138.686 1.10751 138.588 1.01761C138.49 0.91953 138.441 0.784675 138.441 0.61304C138.441 0.441405 138.49 0.310636 138.588 0.220733C138.686 0.130829 138.821 0.0858765 138.993 0.0858765H145.454C145.634 0.0858765 145.773 0.130829 145.871 0.220733C145.969 0.310636 146.018 0.441405 146.018 0.61304C146.018 0.784675 145.969 0.91953 145.871 1.01761C145.773 1.10751 145.634 1.15246 145.454 1.15246H142.855V8.16497C142.855 8.36929 142.802 8.52867 142.695 8.64309C142.597 8.75751 142.442 8.81473 142.23 8.81473Z" fill="#3FA5AD"/>
<path d="M111.76 14.6931C111.949 12.5356 111.638 10.53 110.825 8.72161C111.333 8.54615 111.826 8.3363 112.302 8.0903C114.259 7.07836 115.473 5.3687 115.667 3.14739C115.704 2.72949 115.693 2.31824 115.635 1.91808L117.966 1.67312C119.321 1.53069 120.272 1.57174 120.82 1.79628C121.327 2.025 121.619 2.49806 121.694 3.21547C121.757 3.8133 121.668 4.30623 121.427 4.69426C121.185 5.08228 120.88 5.43674 120.511 5.75762C120.142 6.0785 119.799 6.45707 119.482 6.89333C119.125 7.33378 118.856 8.02701 118.673 8.97301C118.486 9.87916 118.464 11.0098 118.606 12.3649L120.479 30.1804C121.12 36.2784 122.775 39.187 125.446 38.9063C126.562 38.7891 127.368 38.2207 127.866 37.2013C128.323 36.1862 128.606 34.6654 128.716 32.6391C128.745 31.3868 129.099 30.3423 129.777 29.5054C130.45 28.6287 131.445 28.1212 132.76 27.983C133.955 27.8573 135.014 28.1491 135.934 28.8582C136.855 29.5673 137.393 30.6593 137.548 32.1339C137.845 34.9637 137.045 37.5059 135.146 39.7606C133.243 41.9754 130.379 43.2838 126.552 43.686C124.042 43.9499 121.856 43.8573 119.995 43.4081C118.131 42.919 116.626 42.2108 115.48 41.2835C114.589 40.5619 113.811 39.6333 113.145 38.4977C113.393 37.7251 113.558 36.9049 113.634 36.0373C113.879 33.2421 113.121 30.7195 111.235 28.7159C110.892 28.3519 110.525 28.0213 110.134 27.7222C110.091 27.3656 110.05 27.0003 110.011 26.6264L109.443 20.9726C110.767 19.1858 111.552 17.0816 111.76 14.6931Z" fill="#3A9095"/>
<path d="M83.2273 9.78847C84.3955 8.79524 85.8291 8.20882 87.4747 8.35281C88.8436 8.47259 90.0217 9.10231 90.8954 10.1435C91.0634 10.3439 91.2136 10.5521 91.3458 10.7674C91.5701 9.68527 91.9911 8.78582 92.6088 8.06902C93.4147 7.13382 94.3966 6.71686 95.5543 6.81815C97.271 6.96834 98.5099 7.98187 99.2709 9.85873C100.072 11.7391 100.378 13.7572 100.189 15.913C100.039 17.6297 99.563 18.9357 98.7605 19.831C97.998 20.7297 97.0578 21.1302 95.94 21.0324C94.1435 20.8752 92.8612 19.8981 92.0932 18.1011C91.811 17.4889 91.5908 16.836 91.4325 16.1422C90.858 17.281 89.9225 18.1909 88.6945 18.826C88.2189 19.072 87.7259 19.2818 87.2171 19.4573C87.7933 20.7378 88.1173 22.1172 88.1904 23.5793C88.3182 23.4563 88.4639 23.3394 88.6274 23.2287C90.3022 23.858 92.1576 24.2617 94.1937 24.4398L94.6728 24.4818C98.7154 24.7148 102.105 23.905 104.842 22.0526C107.578 20.2001 109.087 17.677 109.366 14.4832C109.624 11.5289 108.756 9.03921 106.761 7.01414C108.455 6.96123 109.934 6.6079 111.198 5.95415C112.462 5.3004 113.154 4.29483 113.273 2.93745C113.339 2.17892 113.135 1.51745 112.662 0.953052C112.188 0.388648 111.592 0.0750097 110.873 0.0121394C109.835 -0.0786733 108.874 0.340029 107.988 1.26824C105.93 3.18007 103.903 4.04866 101.907 3.87402C101.507 3.8391 100.99 3.77373 100.355 3.67792C99.7629 3.54568 99.3472 3.46909 99.1077 3.44813L97.1914 3.28047C93.1487 3.04747 89.6687 3.96998 86.7514 6.04799C85.2052 7.14932 84.0305 8.39614 83.2273 9.78847Z" fill="#3A9095"/>
<path fill-rule="evenodd" clip-rule="evenodd" d="M88.0443 26.3325C87.5027 29.8554 85.6387 32.7102 82.5811 34.7798C81.7709 35.3282 80.919 35.795 80.028 36.183L80.031 36.1832C83.085 36.4505 85.7371 37.4436 87.6273 39.4516C89.0562 40.9695 89.8374 42.7852 90.0258 44.7917C90.8681 44.9332 91.7347 45.0429 92.6257 45.1209C97.8157 45.5749 102.135 44.9471 105.583 43.2374C109.068 41.571 110.953 39.1011 111.24 35.8274C111.432 33.6316 110.847 31.8104 109.485 30.3637C108.123 28.917 106.105 28.0767 103.43 27.8427C102.552 27.7658 100.685 27.7232 97.8294 27.7147C94.9774 27.6663 92.9526 27.5898 91.7549 27.485C89.9311 27.3254 88.6943 26.9413 88.0443 26.3325ZM94.6535 41.2553C89.3038 40.7873 86.7303 39.3955 86.9329 37.08C87.0621 35.6028 88.025 34.9429 89.8215 35.1L91.1988 35.2205C92.3167 35.3183 93.7991 35.3877 95.646 35.4286C97.4894 35.5094 98.9301 35.5952 99.9681 35.686L100.148 35.7017C102.024 35.8659 102.899 36.6666 102.774 38.1038C102.55 40.6589 99.8434 41.7094 94.6535 41.2553Z" fill="#3A9095"/>
<path fill-rule="evenodd" clip-rule="evenodd" d="M57.4934 41.0508C58.0393 41.9075 58.867 42.657 59.9766 43.2993C58.8203 43.6406 57.8661 44.2008 57.1141 44.9798C56.402 45.7623 56.004 46.6326 55.9201 47.5908C55.7804 49.1877 56.3803 50.6079 57.7197 51.8515C59.099 53.0986 60.7476 54.0273 62.6653 54.6376C64.6231 55.2515 66.7397 55.6579 69.0153 55.857C74.2053 56.3112 78.5244 55.6834 81.9728 53.9737C85.4575 52.3074 87.3431 49.8374 87.6296 46.5638C87.8217 44.368 87.2368 42.5468 85.875 41.1001C84.5131 39.6534 82.4948 38.813 79.8199 38.579C78.9416 38.5021 77.0747 38.4594 74.2193 38.451C71.3673 38.4025 69.3424 38.3259 68.1448 38.2211C65.2376 37.9668 63.8217 37.1417 63.8971 35.7459C63.8253 35.8953 63.7474 36.0383 63.6658 36.1742C63.1989 36.9516 62.5269 37.6454 61.788 38.2666L61.7758 38.2768L61.7636 38.2868C60.7005 39.157 59.3736 40.0189 57.8216 40.8793L57.7977 40.8926L57.7734 40.9053C57.6796 40.9546 57.5863 41.0031 57.4934 41.0508ZM71.0431 51.9915C65.6935 51.5234 63.12 50.1316 63.3226 47.8161C63.4518 46.3389 64.4147 45.679 66.2112 45.8362L67.5886 45.9567C68.7064 46.0545 70.1888 46.1239 72.0357 46.1648C73.8792 46.2456 75.3199 46.3315 76.3579 46.4223L76.5375 46.438C78.4139 46.6022 79.2892 47.4029 79.1634 48.8401C78.9399 51.3952 76.2331 52.4456 71.0431 51.9915Z" fill="#3A9095"/>
<path fill-rule="evenodd" clip-rule="evenodd" d="M64.2562 34.6943C64.3515 34.227 64.3693 33.723 64.2665 33.194C64.0273 31.9638 63.2312 31.0967 62.267 30.6081C61.7038 30.3227 61.1103 30.106 60.4931 29.9531C60.4538 29.9254 60.3768 29.8634 60.2666 29.7443C60.1292 29.5732 59.9458 29.2389 59.8231 28.6076L58.684 22.7473C59.3279 20.4298 60.8138 18.4421 63.1415 16.7841C66.0588 14.7061 69.5388 13.7836 73.5815 14.0167L75.4978 14.1844C75.7374 14.2053 76.1531 14.2819 76.7449 14.4142C77.3802 14.51 77.8974 14.5754 78.2967 14.6103C80.2928 14.785 82.3199 13.9164 84.3779 12.0046C85.2637 11.0764 86.2256 10.6577 87.2636 10.7485C87.9822 10.8114 88.5783 11.1251 89.0519 11.6895C89.5255 12.2539 89.7291 12.9153 89.6627 13.6739C89.5439 15.0313 88.8525 16.0368 87.5884 16.6905C86.3244 17.3443 84.8452 17.6976 83.151 17.7505C85.1462 19.7756 86.0145 22.2653 85.756 25.2196C85.4765 28.4134 83.9684 30.9365 81.2317 32.7889C78.495 34.6413 75.1053 35.451 71.0626 35.218L70.5836 35.176C68.5475 34.9979 66.6921 34.5942 65.0173 33.9649C64.6937 34.1839 64.44 34.427 64.2562 34.6943ZM72.3299 31.7686C70.5334 31.6114 69.2511 30.6343 68.4831 28.8373C67.6717 27.0767 67.3725 24.9787 67.5856 22.5435C67.7219 20.9865 68.1929 19.7404 68.9989 18.8052C69.8048 17.87 70.7867 17.4531 71.9444 17.5544C73.6611 17.7046 74.9 18.7181 75.661 20.595C76.462 22.4753 76.7681 24.4934 76.5795 26.6493C76.4293 28.366 75.9529 29.6719 75.1505 30.5672C74.388 31.466 73.4478 31.8664 72.3299 31.7686Z" fill="#3A9095"/>
<path d="M0.0604187 32.134C0.215412 30.6593 0.753285 29.5674 1.67404 28.8583C2.59479 28.1491 3.653 27.8574 4.84868 27.9831C6.16392 28.1213 7.15828 28.6288 7.83176 29.5055C8.50943 30.3423 8.86304 31.3869 8.89261 32.6392C9.002 34.6655 9.28542 36.1862 9.74287 37.2014C10.2402 38.2208 11.0468 38.7891 12.1628 38.9064C14.8331 39.1871 16.4887 36.2784 17.1296 30.1805L19.0021 12.365C19.1446 11.0099 19.1224 9.87924 18.9355 8.97309C18.7529 8.02709 18.4832 7.33386 18.1266 6.89341C17.8098 6.45715 17.4667 6.07858 17.0975 5.7577C16.7283 5.43682 16.423 5.08236 16.1817 4.69434C15.9404 4.30631 15.8512 3.81338 15.914 3.21555C15.9894 2.49814 16.2809 2.02508 16.7885 1.79636C17.336 1.57182 18.2872 1.53077 19.6423 1.6732L30.6425 2.82936C31.9179 2.96341 32.8 3.19716 33.2888 3.53061C33.7776 3.86406 33.9843 4.38948 33.9089 5.10689C33.8461 5.70472 33.6563 6.16833 33.3396 6.49771C33.0229 6.82709 32.6506 7.11033 32.2228 7.34743C31.7949 7.58453 31.3607 7.88142 30.9203 8.23809C30.4798 8.59475 30.0719 9.21677 29.6966 10.1041C29.3254 10.9516 29.0687 12.0529 28.9262 13.408L27.5974 26.6265C27.3544 28.9381 27.0453 30.9205 26.6701 32.5735C26.3347 34.2307 25.7802 35.8648 25.0064 37.4759C24.2326 39.087 23.2731 40.3562 22.128 41.2836C20.9828 42.2109 19.4779 42.9191 17.6131 43.4081C15.7526 43.8573 13.5669 43.95 11.056 43.6861C7.2298 43.2839 4.36527 41.9754 2.46237 39.7606C0.563648 37.506 -0.237001 34.9638 0.0604187 32.134Z" fill="#3A9095"/>
<path d="M29.1246 32.6044C29.4761 30.9446 29.7621 29.0318 29.9884 26.878L29.989 26.8726L31.2179 14.6483C32.3986 14.0005 33.1819 13.6392 33.5677 13.5642C34.5511 13.373 35.1729 13.9462 35.4329 15.2837L36.9453 23.3793L38.2873 30.2833C38.7078 32.447 39.3202 34.0222 40.1244 35.009C40.9603 35.9488 42.106 36.2772 43.5616 35.9943C45.0171 35.7114 46.1383 34.7586 46.9252 33.1359C47.7437 31.4663 47.9351 29.5103 47.4992 27.268L46.3866 21.5441C46.1878 20.5213 45.795 19.7607 45.2083 19.2624C44.6138 18.7248 44.0462 18.3248 43.5053 18.0625C42.9961 17.7532 42.6956 17.3625 42.6039 16.8905C42.4586 16.143 42.958 15.3519 44.1021 14.5171C45.2146 13.7293 46.7286 12.8022 48.6443 11.7358C50.5916 10.6225 51.8013 10.0199 52.2734 9.92814C53.2569 9.73697 53.8786 10.3101 54.1386 11.6477L55.651 19.7433L57.4632 29.0667C57.6468 30.0108 57.9767 30.7632 58.4531 31.3238C58.9219 31.8451 59.3917 32.162 59.8627 32.2746C60.3337 32.3871 60.7729 32.5467 61.1805 32.7533C61.5881 32.9598 61.8301 33.2598 61.9066 33.6532C62.0595 34.44 61.5044 35.3644 60.2411 36.4264C59.3253 37.176 58.1304 37.9594 56.6562 38.7767C55.1744 39.5546 54.0204 40.0239 53.1943 40.1845C52.2895 40.3603 51.5672 40.215 51.0275 39.7483C50.5194 39.2347 50.096 38.3168 49.7573 36.9946L49.5033 36.0029C48.6924 37.7119 47.5608 39.1362 46.1085 40.2758C44.6561 41.4155 43.1432 42.1382 41.5696 42.4441C38.2258 43.0941 35.482 42.5251 33.3382 40.7373C31.265 38.9685 29.8605 36.2575 29.1246 32.6044Z" fill="#3A9095"/>
</svg>
